<?xml version="1.0" encoding="UTF-8"?>
<svg width="256" height="256" viewBox="0 0 256 256" fill="none" xmlns="http://www.w3.org/2000/svg">
  <rect width="256" height="256" rx="48" fill="#0B132B"/>
  <g filter="url(#shadow)">
    <path d="M170.5 193.5c-3.9 2.2-8.7 0.8-11.1-3l-66-105.8c-2.5-3.9-1.4-9.1 2.5-11.6l30.6-19.1c3.9-2.4 9-1.2 11.4 2.7l55.3 88.5c2.2 3.6 1.2 8.3-2.2 10.7l-20.5 14.4-0.4 0.3c-3.5 2.4-4.5 7.2-2.3 10.8l5.9 9.5c2.4 3.8 1.2 8.8-2.8 11.1l-0.4 0.2-0.4 0.3-0.1 0.1z" fill="#2BB5F0"/>
  </g>
  <defs>
    <filter id="shadow" x="40" y="36" width="180" height="180" filterUnits="userSpaceOnUse" color-interpolation-filters="sRGB">
      <feFlood flood-opacity="0" result="BackgroundImageFix"/>
      <feColorMatrix in="SourceAlpha" type="matrix" values="0 0 0 0 0 0 0 0 0 0 0 0 0 0 0 0 0 0 127 0" result="hardAlpha"/>
      <feOffset dy="2"/>
      <feGaussianBlur stdDeviation="6"/>
      <feComposite in2="hardAlpha" operator="out"/>
      <feColorMatrix type="matrix" values="0 0 0 0 0.1686 0 0 0 0 0.5882 0 0 0 0 0.9412 0 0 0 0.3 0"/>
      <feBlend mode="normal" in2="BackgroundImageFix" result="effect1_dropShadow"/>
      <feBlend mode="normal" in="SourceGraphic" in2="effect1_dropShadow" result="shape"/>
    </filter>
  </defs>
</svg>


